<?xml version="1.0" ?><svg id="Layer_1" style="enable-background:new 0 0 128 128;" version="1.1" viewBox="0 0 128 128" xml:space="preserve" xmlns="http://www.w3.org/2000/svg" xmlns:xlink="http://www.w3.org/1999/xlink"><g><path d="M120.026,59.591c-0.004-0.112-0.02-0.224-0.063-0.331c-0.002-0.006-0.005-0.011-0.007-0.017   c-0.001-0.003-0.003-0.006-0.004-0.009C112.603,40.713,96.237,30.926,83.8,25.977c-1.562-0.621-3.356-0.563-4.922,0.16   l-8.784,4.057c0,0,0,0,0,0c-0.001,0-0.002,0-0.002,0.001l-12.704,5.917c-0.003,0.001-0.005,0.005-0.008,0.006   c-0.003,0.002-0.007,0.001-0.01,0.002L10.823,58.957c-0.171,0.065-0.345,0.147-0.531,0.267c-1.436,0.77-2.325,2.273-2.325,3.935   v34.762c0,2.499,2.032,4.531,4.531,4.531h103.004c2.499,0,4.531-2.033,4.531-4.531V59.628   C120.033,59.615,120.026,59.604,120.026,59.591z M118.033,96.978c-1.612,0.722-3.466,0.714-5.181-0.052   c-1.72-0.771-3.06-2.375-3.495-4.187c-0.476-1.981-0.048-4.005,1.173-5.555c1.219-1.546,3.048-2.433,5.018-2.433   c0.858,0,1.705,0.192,2.485,0.542V96.978z M70.208,32.347c0.775,1.068,1.23,2.39,1.23,3.754c0,3.52-2.843,6.383-6.338,6.383   c-2.992,0-5.51-2.065-6.155-4.892L70.208,32.347z M57.084,38.488c1.004,3.499,4.238,5.997,8.017,5.997   c4.598,0,8.338-3.761,8.338-8.383c0-1.646-0.488-3.27-1.366-4.618l7.644-3.53c1.069-0.494,2.29-0.538,3.344-0.117   c11.767,4.682,27.146,13.799,34.478,30.792H16.035L57.084,38.488z M62.267,63.618c0,1.955-0.875,3.777-2.402,4.999   c-1.508,1.206-3.47,1.653-5.392,1.221c-2.458-0.553-4.448-2.657-4.84-5.118c-0.229-1.444,0.022-2.869,0.664-4.091h11.23   C62.003,61.535,62.267,62.553,62.267,63.618z M59.017,98.626c0.783-2.381,2.695-4.183,4.872-4.59   c1.878-0.351,3.786,0.139,5.237,1.343c1.47,1.22,2.313,3.016,2.313,4.927c0,0.05-0.006,0.097-0.007,0.146H58.729   C58.714,99.946,58.764,99.395,59.017,98.626z M115.502,100.453h-42.07c0.001-0.051,0.007-0.094,0.007-0.146   c0-2.508-1.106-4.864-3.035-6.465c-1.91-1.586-4.423-2.229-6.882-1.771c-2.928,0.548-5.382,2.821-6.405,5.931   c-0.333,1.014-0.412,1.791-0.397,2.451H12.498c-1.396,0-2.531-1.136-2.531-2.531V63.159c0-0.931,0.496-1.767,1.295-2.184   l0.395-0.198c0.248-0.099,0.523-0.149,0.842-0.149h35.59c-0.514,1.374-0.671,2.889-0.43,4.406c0.524,3.301,3.087,6.016,6.377,6.755   c0.626,0.141,1.257,0.21,1.882,0.21c1.881,0,3.707-0.628,5.197-1.82c2.003-1.604,3.152-3.995,3.152-6.561   c0-1.039-0.203-2.045-0.558-2.99h54.324V83.16c-0.802-0.26-1.638-0.409-2.485-0.409c-2.586,0-4.987,1.165-6.588,3.195   c-1.604,2.034-2.167,4.68-1.548,7.26c0.587,2.438,2.315,4.512,4.624,5.545c1.142,0.511,2.336,0.766,3.516,0.766   c0.712,0,1.417-0.096,2.103-0.281C117.21,99.962,116.415,100.453,115.502,100.453z"/><path d="M28.392,73.571c-4.619,0-8.378,3.758-8.378,8.378c0,4.619,3.759,8.377,8.378,8.377s8.377-3.758,8.377-8.377   C36.769,77.329,33.011,73.571,28.392,73.571z M28.392,88.326c-3.517,0-6.378-2.861-6.378-6.377s2.861-6.378,6.378-6.378   s6.377,2.861,6.377,6.378S31.908,88.326,28.392,88.326z"/><path d="M88.011,64.399c-4.619,0-8.378,3.758-8.378,8.377c0,4.62,3.759,8.378,8.378,8.378s8.377-3.758,8.377-8.378   C96.388,68.157,92.63,64.399,88.011,64.399z M88.011,79.154c-3.517,0-6.378-2.861-6.378-6.378s2.861-6.377,6.378-6.377   s6.377,2.861,6.377,6.377S91.527,79.154,88.011,79.154z"/></g></svg>