<?xml version="1.0" ?><svg id="Capa_1" style="enable-background:new 76 -76 512 512;" version="1.1" viewBox="76 -76 512 512" xml:space="preserve" xmlns="http://www.w3.org/2000/svg" xmlns:xlink="http://www.w3.org/1999/xlink"><style type="text/css">
	.st0{fill:#2D2D2D;}
</style><g><path class="st0" d="M336.2-71.3c3.7,0.8,7.3,1.6,11,2.4c17.6,3.5,35.3,6.9,52.9,10.4c6.1,1.2,12.2,2.4,18.3,3.6   c1.4,0.3,2.8,0.7,4.1,1.2c5.1,2.1,8.1,6,8.7,11.4c0.4,3.8,0.4,7.7,0.4,11.5c0,18.4,0.1,36.8,0,55.2c-0.2,29.7-10.3,55.5-30.5,77.3   c-12,13-26.4,22.3-42.9,28.5c-6.7,2.5-13.5,4.9-20.2,7.5c-3.4,1.3-6.9,1.4-10.3,0.1c-8-3-16.1-5.8-24-9c-34.9-14-60.5-45-67.8-81.9   c-1.5-7.7-2.3-15.5-2.3-23.4c0-20.9,0-41.8,0-62.6c0-1.7,0.2-3.5,0.6-5.2c1.5-5.5,5.2-9,10.7-10.2c7.2-1.6,14.4-3,21.6-4.4   c18.4-3.6,36.9-7.2,55.3-10.8c2.7-0.5,5.5-1.1,8.2-1.7C332-71.3,334.1-71.3,336.2-71.3z M239.6-4.6c0,9.3,0,18.6,0,27.8   c0,7.2,0.6,14.4,1.9,21.5c6.6,35.3,30.9,65.1,64.3,78.4c7.6,3.1,15.4,5.7,23.1,8.7c2.5,1,4.9,0.9,7.4,0c6.4-2.5,12.9-4.8,19.3-7.2   c14.8-5.5,27.9-13.7,39-25.1c20.1-20.7,30.5-45.4,30.8-74.3c0.2-19,0-38.1,0-57.1c0-2.6,0-5.3-0.1-7.9c-0.2-5.1-2.4-7.8-7.3-9   c-2.1-0.5-4.2-0.9-6.3-1.3c-24.4-4.8-48.8-9.6-73.1-14.4c-3.1-0.6-6.2-1-9.3-0.4c-2.6,0.5-5.2,1-7.8,1.5   c-17.6,3.4-35.3,6.9-52.9,10.3c-7.3,1.4-14.6,2.8-21.9,4.4c-4.5,0.9-7,4-7.2,8.6c0,0.6,0,1.3,0,1.9C239.6-27,239.6-15.8,239.6-4.6z   "/><path class="st0" d="M263.7,5.8c0-7.8,0-15.5,0-23.3c0-1.1,0-2.3,0.2-3.3c0.9-4.4,3.5-7.3,8-8.3c5.4-1.2,10.8-2.2,16.2-3.2   c13.7-2.7,27.5-5.3,41.2-8c3-0.6,5.9-0.4,8.8,0.2c18.2,3.6,36.4,7.1,54.6,10.7c4.3,0.9,7.5,3.2,8.6,7.6c0.2,0.9,0.3,1.9,0.3,2.8   c0,15.2,0.2,30.4-0.1,45.6c-0.5,32.9-20.8,62.3-51.3,74.6c-4.6,1.9-9.3,3.4-13.9,5.1c-2.6,1-5.1,0.9-7.7-0.1   c-3.9-1.5-7.8-2.8-11.7-4.3c-17.7-7.1-32-18.3-41.7-34.9c-7.5-13-11.5-27-11.5-42.1C263.7,18.6,263.7,12.2,263.7,5.8z M395.4,6.8   c0.1,0,0.2,0,0.3,0c0-8.2,0-16.3,0-24.5c0-4.1-1-5.2-5-6c-0.2,0-0.5-0.1-0.7-0.1c-17.5-3.4-35-6.8-52.5-10.3   c-2.9-0.6-5.7-0.6-8.5,0c-17.8,3.5-35.6,6.9-53.4,10.4c-5.1,1-5.8,1.8-5.8,7c0,13.8,0,27.7,0,41.5c0,12.6,3,24.6,8.8,35.8   c8.8,17.1,22.7,28.4,40.2,35.6c3.9,1.6,8,2.9,11.9,4.4c1.4,0.5,2.6,0.5,3.9,0c4.2-1.6,8.4-3,12.6-4.6c28.3-11.2,47-37.4,48.2-67.8   C395.6,21.1,395.4,13.9,395.4,6.8z"/></g><path class="st0" d="M584,223.5c-0.1-28.6-0.2-57.3-0.3-85.9c0-4.5,0-9-0.3-13.4c-0.3-5.7-5.4-8.7-10.6-6.5  c-1.1,0.5-2.1,1.1-3.2,1.7c-24.7,14.4-49.5,28.8-74.2,43.2c-15.1,8.8-30.1,17.5-45.1,26.4c-3.1,1.8-6.2,2.2-9.6,0.9  c-5.2-1.9-10.4-3.6-15.6-5.3c-19.8-6.6-39.8-7.5-60-2.3c-3.2,0.8-6.4,1.9-9.7,2.9c-0.5-0.5-1-0.9-1.6-1.4  c-23.8-21.6-51.7-29.8-83.3-25.3c-15.6,2.2-31.1,5-46.6,7.6c-1.8,0.3-3.4,0.1-5.1-0.7c-41.3-19.5-82.7-38.9-124.1-58.3  c-1.7-0.8-3.5-1.7-5.2-2.4c-3.1-1.2-5.9-0.2-7.7,2.5c-0.3,0.5-0.7,1-1.1,1.5c0,45,0,89.9,0,134.9c0.2,0.3,0.5,0.5,0.6,0.8  c1.1,3.7,3.9,5.6,7.2,7.2c26.2,12.7,52.3,25.5,78.4,38.2c3.9,1.9,7.2,4.5,9.8,7.9c8.4,10.8,18.4,19.8,29.7,27.3  c2,1.4,4.3,2.4,6.5,3.6c0.5,0.3,0.8,0.7,1.3,1c3.3,2.4,6.6,4.8,10.7,5.6c4.3,10.3,12.3,15,23.2,15.1c-0.3,1.8-0.7,3.2-0.8,4.7  c-0.1,1.5-0.2,3.1,0,4.5c1.7,13.9,13.9,22.7,27.7,20.1c0.5-0.1,1,0,1.6,0c-0.1,1.4-0.2,2.7-0.3,3.9c-0.3,7.3,2.5,13.3,8.1,17.8  c5.8,4.7,12.5,5.9,19.7,4.7c0.6-0.1,1.2-0.1,1.9-0.2c-0.1,0.6-0.1,1-0.1,1.4c-1,12.2,6.5,22.1,18.5,24.5c1.2,0.2,2.3,0.6,3.4,0.9  c0.8,0,1.6,0,2.4,0c0.4-0.1,0.7-0.3,1.1-0.4c5.5-0.7,10.2-3,14.4-6.7c1.6-1.4,3.2-2.8,4.9-4.3c7.8,7.4,16.8,9.6,26.6,4.7  c9.7-4.8,14.2-13,13.4-24.1c8.1,1.9,15.1,0.3,21.2-5c6.1-5.4,9-12.1,8.3-20.5c8.1,1.9,15.3,0.2,21.4-5.1c6.3-5.4,8.9-12.3,8.2-20.5  c15.3,3.9,30.5-8.6,29.9-24.2c0.3-0.2,0.6-0.4,1-0.5c4.3-2,8.3-4.5,12.1-7.4c9.1-6.9,16.6-15.2,22.8-24.7c1.1-1.7,2.5-2.8,4.3-3.7  c19-9.3,38.1-18.6,57.1-27.8c3.4-1.6,6.1-3.6,7.3-7.3c0-9.8,0-19.5,0-29.3C584.2,225.1,584,224.3,584,223.5z M225.6,322.2  c-0.4,2-0.6,4.1-0.9,6.4c-1.2-0.4-2.2-1-3.3-1.7l-0.1,0.3l-8.6-5.3l-0.1-0.2c-3.5-2.5-6.8-4.8-10-7.2c-7.6-5.8-14.5-12.5-20.4-20.1  c-3.4-4.3-7.6-7.8-12.5-10.2c-26.2-12.7-52.4-25.5-78.6-38.3c-0.6-0.3-1.1-0.6-1.7-0.9c-1.4-0.7-2.1-1.9-2.1-3.5c0-0.7,0-1.4,0-2.2  c0-41,0-81.9,0-122.9c0-2,0-4,0-6.3c1.1,0.4,1.9,0.8,2.8,1.2c16.6,7.8,33.3,15.6,49.9,23.4c25.6,12,51.2,24,76.8,36.1  c2.4,1.1,4.7,1.6,7.4,1.2c14.2-2.4,28.4-4.7,42.6-7.1c9.1-1.5,18.2-2.4,27.5-1.6c22,2.1,41.1,10.4,56.9,25.9  c13.5,13.2,26.6,26.8,39.9,40.2c1.4,1.4,2.7,2.7,4,4.1c7.4,8,4.7,17.5,0.7,22.9c-4,5.2-13.7,9-22.2,4.2c-1.1-0.6-2.2-1.4-3.2-2.1  c-9.8-6.9-19.6-13.9-29.4-20.8c-1.3-1-2.8-1.5-4.4-1.5c-6.6-0.2-13.1-0.5-19.7-0.8c-0.9,0-1.8,0.3-2.5,0.9l-9,8.3l-1,0.7  c-23.6,21.4-47.3,42.8-70.9,64.2C229.6,313.1,226.7,317.1,225.6,322.2z M373.5,421.2c-6.4,2.6-13.1,1.3-18-4.1  c-4.8-5.2-9.4-10.7-14-16.1c-8.9-10.7,0-25.2,10.3-26.9c3.7-0.6,7.2-0.5,10.5,1.2c1,0.5,2,1.4,2.7,2.2c5.5,6.3,10.8,12.8,16.5,19  c1.8,2,2.7,4,3.1,6.5c0.1,0.7,0.1,1.4,0.1,1.7C384.8,412.1,380.4,418.5,373.5,421.2z M409.3,391.1c-3.8,3.8-7.6,5.5-12.9,5.6  c-3.9-0.1-8.1-1.6-11.3-5.2c-4.5-5.2-9.1-10.3-13.5-15.6c-5-6-5.5-13.4-1.4-19.5c3.4-5.1,10.3-10.3,19.3-7.7  c2.9,0.8,5.4,2.3,7.4,4.6c4.5,5.2,9.1,10.3,13.5,15.6C416.1,375.8,415.7,384.7,409.3,391.1z M442,361.5c-3,5.3-7.6,8.6-13.7,9.5  c-3.6,0.5-7-0.4-10.1-2.3c-0.5-0.3-0.8-0.7-1.2-1.1c-6-6.9-11.9-13.8-17.9-20.7c-0.5-0.5-0.8-1.2-1.1-1.8c-0.3-0.9-0.6-1.8-0.8-2.8  c-0.2-0.9-0.2-1.9-0.2-2.9c0.1-6.9,4.9-13.4,11.8-16.1c6.3-2.4,13.2-0.7,17.9,4.5c4.7,5.3,9.3,10.6,13.8,15.9  C444.6,348.7,445.2,356,442,361.5z M449.6,344c-1.4-0.7-2.5-1.6-3.5-2.8c-5.6-6.5-11.3-13-17.1-19.5c-1.3-1.4-1.7-3-2.1-4.7  c-0.8-4.3-0.1-8.3,2.4-11.9c3.7-5.4,10.5-10.1,19.1-7.8c3,0.8,5.6,2.3,7.6,4.7c4.6,5.3,9.2,10.6,13.8,15.9c2.5,2.9,3.7,6.3,3.6,10.1  C473.9,338.8,461,349.3,449.6,344z M575.2,256.6c-19.2,9.3-38.4,18.7-57.6,28c-3,1.4-5.3,3.3-7.1,6.1c-6.1,9.3-13.5,17.4-22.6,24  c-3,2.2-6,4.1-9.6,5.7c-1.6-4.3-4.7-7.3-7.5-10.6c-3.3-3.8-6.6-7.6-9.9-11.4c-7.4-8.5-19.5-10.2-28.9-4.1  c-7.6,4.9-11.7,11.9-11.4,21.1c0,0.4,0,0.8,0,1.2c0,0.1-0.1,0.1-0.3,0.5c-7.7-1.7-14.9-0.2-21,5.1c-6.2,5.3-8.9,12.1-8.4,20.5  c-8.2-1.9-15.3-0.2-21.4,5.2c-6.2,5.4-8.8,12.2-8.1,20.2c-2.8-0.1-5.4-0.3-8-0.2c-15.2,1-22.8,15.5-21.6,25.5  c0.5,4.4,2.3,8.3,5.1,11.7c2.5,3,5.1,6,7.6,9c0.7,0.8,1.3,1.6,2.2,2.5c-4.7,4.5-9.1,9.2-16.1,9.6c-6.7,0.4-12.4-1.8-16-7.6  c-3.6-5.8-3.5-11.8-0.1-17.7c0.3-0.6,0.7-1.1,1-1.6c0.1-0.1,0.1-0.3,0.2-0.7c-0.9-1-1.9-2.1-3-3.3c-0.8,0.6-1.4,1.1-2.1,1.6  c-5.9,4.5-13.8,5-20.1,1.3c-6.5-3.8-9.4-10.8-7.3-18.1c0.7-2.5,1.9-4.9,3-7.6c-0.8-0.9-1.9-2-3-3.2c-0.9,0.6-1.7,1.2-2.4,1.7  c-5,3.4-10.4,4.1-16,2.2c-10.6-3.7-14.6-16.3-8-25.6c1.7-2.3,3.7-4.4,5.5-6.7c0.7-0.9,1.4-1.7,2.1-2.8c-1.2-0.5-1.8,0.2-2.6,0.5  c-2.8,1.4-5.5,2.9-8.4,4.1c-6.2,2.6-12.1,1.7-17.4-2.4c-2-1.5-3.5-3.5-4.5-5.8c-0.8-1.6-1.3-3.2-0.7-5.1c0.2-0.6,0.2-1.3,0.2-1.9  c0-5.2,2.2-9.4,6-12.8c9.7-8.7,19.3-17.5,29-26.2c15.2-13.7,30.4-27.5,45.5-41.3c1.6-1.5,2.9-3.4,4.5-5.3c1.6,0,3.7-0.1,5.7,0  c4.2,0.1,8.5,0.4,12.7,0.5c1.5,0,2.7,0.5,4,1.4c9.8,7,19.5,13.9,29.4,20.8c8,5.6,16.4,6.1,25.2,1.9c12.2-5.8,17.7-24.3,6.7-36.4  c-3.4-3.7-7-7.3-10.5-10.8c-9.3-9.5-18.7-18.9-28-28.3c-0.2-0.2-0.3-0.4-0.5-0.8c0.6-0.3,1.2-0.5,1.7-0.7  c20.6-6.3,41.1-5.7,61.5,1.2c5,1.7,10,3.3,15,5.1c5.1,1.8,9.8,1.4,14.5-1.4c11.6-6.9,23.3-13.6,35-20.4  c28.2-16.4,56.4-32.8,84.5-49.2c0.8-0.5,1.7-1,2.6-1.3c1.1-0.4,1.7,0,2,1.1c0.2,0.8,0.2,1.6,0.2,2.4c0.1,9.8,0.1,19.5,0.2,29.3  c0.2,28.4,0.4,56.8,0.6,85.2c0,3.4,0,6.7,0.2,10.1C578.7,253.9,577.6,255.4,575.2,256.6z"/></svg>