<?xml version="1.0" encoding="utf-8"?>
<!-- Generator: Adobe Illustrator 18.0.0, SVG Export Plug-In . SVG Version: 6.00 Build 0)  -->
<!DOCTYPE svg PUBLIC "-//W3C//DTD SVG 1.1//EN" "http://www.w3.org/Graphics/SVG/1.1/DTD/svg11.dtd">
<svg version="1.1" id="Layer_1" xmlns="http://www.w3.org/2000/svg" xmlns:xlink="http://www.w3.org/1999/xlink" x="0px" y="0px"
	 viewBox="0 0 64 64" enable-background="new 0 0 64 64" xml:space="preserve">
<g>
	<path d="M24,52c-3.3,0-6,2.7-6,6s2.7,6,6,6s6-2.7,6-6S27.3,52,24,52z M24,60c-1.1,0-2-0.9-2-2s0.9-2,2-2s2,0.9,2,2S25.1,60,24,60z"
		/>
	<path d="M51,52c-3.3,0-6,2.7-6,6s2.7,6,6,6s6-2.7,6-6S54.3,52,51,52z M51,60c-1.1,0-2-0.9-2-2s0.9-2,2-2s2,0.9,2,2S52.1,60,51,60z"
		/>
	<path d="M19,42h39.8l4.5-34H13.5l-1.9-8H0v4h8.4l8.2,34.5c-2.1,0.9-3.6,3-3.6,5.5c0,3.3,2.7,6,6,6h39v-4H19c-1.1,0-2-0.9-2-2
		S17.9,42,19,42z M44,27v11H31V27H44z M31,23V12h13v11H31z M27,38h-6.4L18,27h9V38z M48,38V27h8.7l-1.5,11H48z M57.2,23H48V12h10.7
		L57.2,23z M27,12v11H17l-2.6-11H27z"/>
</g>
</svg>
