<svg xmlns="http://www.w3.org/2000/svg" width="32" height="32" viewBox="0 0 32 32"><g font-family="sans-serif" font-size="45.121" font-weight="400" letter-spacing="0" transform="translate(0 -1020.362)" word-spacing="0"><path style="line-height:125%;-inkscape-font-specification:Montserrat Bold" d="M 8.40625,2 C 8.1770488,2.0437333 7.9958883,2.2667 8,2.5 L 8,7.40625 C 7.6875,7.3020833 7.375,7.1979167 7.0625,7.09375 L 6.71875,8.03125 C 7.2253534,8.1480191 7.5582955,8.3540475 8,8.5625 l 0,4.03125 0,2.84375 C 7.641079,15.677942 7.2428333,15.767736 6.84375,15.90625 L 7.125,16.84375 C 7.4484104,16.757092 7.7118495,16.660302 8,16.5625 L 8,29.5 c 2.62e-5,0.261792 0.2382078,0.499974 0.5,0.5 l 15,0 c 0.261792,-2.6e-5 0.499974,-0.238208 0.5,-0.5 l 0,-1.5 0.5,0 0.5,0 0,-1 -0.5,0 -0.5,0 0,-5 0.5,0 1,0 0.5,0 0,-1 -0.5,0 -1,0 -0.5,0 0,-6 4.5,0 c 0.15984,-0.0023 0.31634,-0.08657 0.40625,-0.21875 l 2,-3 c 0.112001,-0.16465 0.112001,-0.39785 0,-0.5625 l -2,-3 C 28.81634,8.0865746 28.65984,8.002305 28.5,8 L 24,8 24,2.5 C 23.999974,2.2382078 23.761792,2.0000262 23.5,2 L 8.5,2 C 8.468842,1.99707 8.437408,1.99707 8.40625,2 z M 8,12.59375 c 0,-0.5538 -0.3055778,-0.875 -0.8125,-0.875 -0.5026624,0 -0.8125,0.3212 -0.8125,0.875 0,0.4185 0.1692292,0.721744 0.46875,0.84375 C 6.9435903,13.478169 7.0618344,13.5 7.1875,13.5 7.6944222,13.5 8,13.15175 8,12.59375 z M 9,3 23,3 23,29 9,29 z m 5,1 0,1 4,0 0,-1 z M 10.34375,6 C 10.137227,6.0676614 9.9892205,6.282943 10,6.5 l 0,18 c 2.6e-5,0.261792 0.238208,0.499974 0.5,0.5 l 11,0 c 0.261792,-2.6e-5 0.499974,-0.238208 0.5,-0.5 l 0,-18 C 21.999974,6.2382078 21.761792,6.0000262 21.5,6 l -11,0 C 10.44834,5.99183 10.395405,5.99183 10.34375,6 z m -4.5625,0.96875 c -0.7068498,0.070163 -1.3465079,0.308758 -2,0.5625 L 4.125,8.4375 C 4.7197793,8.1883593 5.3390571,8.0617696 5.96875,7.9375 z M 11,7 21,7 21,24 11,24 z M 2.78125,8.1875 C 2.18442,8.6475694 1.7857386,9.3507493 1.46875,9.90625 L 2.375,10.34375 C 2.5939004,9.7478059 3.0750304,9.3043076 3.46875,8.9375 z M 24,9 28.21875,9 29.90625,11.5 28.21875,14 24,14 24,11.1875 z m 0,2.1875 c 0,0.2791 0.150659,0.46875 0.40625,0.46875 0.255591,0 0.40625,-0.18965 0.40625,-0.46875 0,-0.2768 -0.150659,-0.4375 -0.40625,-0.4375 C 24.150659,10.75 24,10.9107 24,11.1875 z M 4.8125,10.5 C 4.3098376,10.5 4,10.85255 4,11.40625 c 0,0.5581 0.3098376,0.875 0.8125,0.875 0.5069223,0 0.8125,-0.3169 0.8125,-0.875 C 5.625,10.85255 5.3194223,10.5 4.8125,10.5 z m 1.9375,0 -2.15625,3 0.625,0 2.15625,-3 z m 18.625,0.25 -1.0625,1.5 0.34375,0 1.0625,-1.5 z M 4.8125,10.875 c 0.2513312,0 0.40625,0.20325 0.40625,0.53125 0,0.3366 -0.1549188,0.53125 -0.40625,0.53125 -0.1235356,0 -0.2141573,-0.0652 -0.28125,-0.15625 C 4.4977037,11.735725 4.4549388,11.6907 4.4375,11.625 4.4200612,11.5593 4.40625,11.4904 4.40625,11.40625 c 0,-0.082 0.013811,-0.185106 0.03125,-0.25 C 4.489816,10.961569 4.6271965,10.875 4.8125,10.875 z m 19.59375,0.0625 c 0.112886,0 0.1875,0.0926 0.1875,0.25 0,0.1577 -0.07462,0.25 -0.1875,0.25 -0.112886,0 -0.1875,-0.0925 -0.1875,-0.25 0,-0.1576 0.07462,-0.25 0.1875,-0.25 z M 12.9375,11 12.625,11 12,11 l -0.5,0 0,1 0.5,0 0.625,0 0.03125,0 1.28125,5.4375 C 13.535603,17.682331 13.25,18.093832 13.25,18.59375 13.25,19.35455 13.895391,20 14.65625,20 c 0.760858,0 1.375,-0.64545 1.375,-1.40625 0,-0.131462 -0.02754,-0.254009 -0.0625,-0.375 l 0.84375,0 c -0.03435,0.120015 -0.0625,0.244726 -0.0625,0.375 0,0.7608 0.645392,1.40625 1.40625,1.40625 0.760859,0 1.375,-0.64545 1.375,-1.40625 0,-0.834268 -0.531721,-1.375 -1.3125,-1.375 l -3.28125,0 -0.1875,-0.78125 4.09375,0 c 0.206749,-0.0026 0.404138,-0.147339 0.46875,-0.34375 l 1.15625,-3.5625 C 20.566453,12.234202 20.312679,11.878918 20,11.875 l -6.34375,0 -0.125,-0.5 C 13.517972,10.987686 13.192243,11 12.9375,11 z M 1.09375,11 C 0.94781421,11.69677 1.026538,12.461117 1.0625,13.09375 l 1,-0.0625 C 1.9795486,12.383074 2.0370261,11.687695 2.09375,11.125 z m 27.3125,0 C 28.17704,11.043715 27.995869,11.266696 28,11.5 28,11.761799 28.238201,12 28.5,12 28.761799,12 29,11.761799 29,11.5 29,11.238201 28.761799,11 28.5,11 28.46884,10.9971 28.43741,10.9971 28.40625,11 z M 25.625,11.34375 c -0.255591,0 -0.40625,0.19185 -0.40625,0.46875 0,0.279 0.150659,0.4375 0.40625,0.4375 0.255591,0 0.40625,-0.1585 0.40625,-0.4375 0,-0.2769 -0.150659,-0.46875 -0.40625,-0.46875 z m 0,0.21875 c 0.112886,0 0.1875,0.0926 0.1875,0.25 0,0.1598 -0.07462,0.25 -0.1875,0.25 -0.112886,0 -0.1875,-0.0904 -0.1875,-0.25 0,-0.1576 0.07462,-0.25 0.1875,-0.25 z m -18.4375,0.5 c 0.2513312,0 0.375,0.19895 0.375,0.53125 0,0.3323 -0.1236688,0.53125 -0.375,0.53125 -0.2470714,0 -0.40625,-0.19895 -0.40625,-0.53125 0,-0.08307 0.013811,-0.153252 0.03125,-0.21875 0.017439,-0.0655 0.060204,-0.110456 0.09375,-0.15625 0.033546,-0.04579 0.076677,-0.101039 0.125,-0.125 C 7.079573,12.06979 7.125732,12.0625 7.1875,12.0625 z m 6.71875,0.8125 5.40625,0 -0.25,0.78125 -2.75,0 0,1 2.4375,0 -0.25,0.78125 -4,0 z m -11.5625,0.84375 -0.8125,0.5625 c 0.3599989,0.625442 0.8165947,1.114067 1.3125,1.625 L 3.5625,15.1875 C 3.0656383,14.768733 2.7097401,14.247402 2.34375,13.71875 z m 1.8125,1.9375 -0.25,0.96875 c 0.6774575,0.234443 1.3574759,0.317303 2.0625,0.375 l 0.0625,-1 C 5.4238709,15.837253 4.9298604,15.843918 4.15625,15.65625 z m 10.5,2.5625 c 0.220121,0 0.375,0.1544 0.375,0.375 0,0.2207 -0.154879,0.40625 -0.375,0.40625 C 14.436111,19 14.25,18.81445 14.25,18.59375 c 0,-0.2206 0.186111,-0.375 0.40625,-0.375 z m 3.5,0 c 0.220121,0 0.375,0.1544 0.375,0.375 0,0.2207 -0.154879,0.40625 -0.375,0.40625 C 17.936129,19 17.75,18.81445 17.75,18.59375 c 0,-0.2206 0.186129,-0.375 0.40625,-0.375 z M 27,21 l 0,1 0.5,0 1,0 0.5,0 0,-1 -0.5,0 -1,0 z m 3,0 0,0.5 0,1 0,0.5 1,0 0,-0.5 0,-1 0,-0.5 z m -4.1875,2 C 25.309838,23 25,23.3212 25,23.875 c 0,0.558 0.309838,0.90625 0.8125,0.90625 0.506922,0 0.8125,-0.34825 0.8125,-0.90625 C 26.625,23.3212 26.319422,23 25.8125,23 z m 1.9375,0 -2.15625,3 0.625,0 2.15625,-3 z m -1.9375,0.34375 c 0.251331,0 0.40625,0.20325 0.40625,0.53125 0,0.3365 -0.154919,0.53125 -0.40625,0.53125 -0.247071,0 -0.40625,-0.19475 -0.40625,-0.53125 0,-0.328 0.159179,-0.53125 0.40625,-0.53125 z M 30,24 l 0,0.5 0,1 0,0.5 1,0 0,-0.5 0,-1 0,-0.5 z m -1.8125,0.1875 c -0.502662,0 -0.8125,0.35245 -0.8125,0.90625 C 27.375,25.65185 27.684838,26 28.1875,26 28.694422,26 29,25.65185 29,25.09375 29,24.53995 28.694422,24.1875 28.1875,24.1875 z m 0,0.375 c 0.251331,0 0.375,0.19895 0.375,0.53125 0,0.3323 -0.123669,0.53125 -0.375,0.53125 -0.247071,0 -0.40625,-0.19895 -0.40625,-0.53125 0,-0.3323 0.159179,-0.53125 0.40625,-0.53125 z M 15.84375,26 C 15.374167,26.07425 14.994166,26.524619 15,27 c 0,0.523599 0.476401,1 1,1 0.523599,0 1,-0.476401 1,-1 0,-0.523599 -0.476401,-1 -1,-1 -0.05198,-0.0041 -0.104273,-0.0041 -0.15625,0 z M 26,27 l 0,1 0.5,0 1,0 0.5,0 0,-1 -0.5,0 -1,0 z m 3,0 0,1 0.5,0 1,0 0.5,0 0,-1 -0.5,0 -1,0 z" font-family="Montserrat" font-size="2.13" font-weight="700" transform="translate(0 1020.362)"/></g></svg>