<svg xmlns="http://www.w3.org/2000/svg" enable-background="new 0 0 100 100" viewBox="0 0 100 100"><path d="M70.5,9.66c-5.04,0-9.68,1.7-13.39,4.55c-5.13-1.03-9.73-3.87-13.03-8.13c-0.75-0.98-2.4-0.98-3.16,0
		c-4.21,5.45-10.56,8.58-17.42,8.58h-10c-3.31,0-6,2.69-6,6v34.18c0,20.08,14.93,37.18,34.73,39.8c0.09,0.01,0.18,0.01,0.27,0.01
		c0.08,0,0.17,0,0.26-0.01c19.8-2.62,34.74-19.72,34.74-39.8c0-0.06-0.02-0.12-0.02-0.19h0.02v-2.14c8.7-2.94,15-11.17,15-20.85
		C92.5,19.52,82.63,9.66,70.5,9.66z M73.5,54.84c0,17.99-13.31,33.33-31,35.8c-17.7-2.47-31-17.81-31-35.8V20.66c0-1.11,0.89-2,2-2
		h10c7.29,0,14.09-2.99,19-8.27c3.1,3.33,6.95,5.75,11.2,7.08c-1.32,1.56-2.43,3.31-3.28,5.2c-2.38-0.88-4.67-2.03-6.8-3.47
		c-0.68-0.46-1.57-0.46-2.24,0c-5.29,3.57-11.48,5.46-17.88,5.46h-4c-1.11,0-2,0.89-2,2v28.26c0,14.62,10.36,27.11,24.64,29.7
		c0.12,0.02,0.24,0.03,0.36,0.03c0.11,0,0.23-0.01,0.35-0.03c14.28-2.59,24.65-15.08,24.65-29.7v-1.48c0.98,0.14,1.98,0.21,3,0.21
		c1.01,0,2.01-0.07,3-0.21v1.21h0.01C73.51,54.72,73.5,54.78,73.5,54.84z M63.5,52.51v2.41c0,12.56-8.81,23.31-21,25.7
		c-12.2-2.39-21-13.14-21-25.7V28.66h2c6.76,0,13.3-1.87,19-5.42c2.1,1.31,4.32,2.38,6.62,3.23c-0.41,1.66-0.62,3.4-0.62,5.19
		C48.5,41.34,54.79,49.57,63.5,52.51z M70.5,49.65c-9.93,0-18-8.07-18-17.99c0-9.93,8.07-18,18-18c9.92,0,18,8.07,18,18
		C88.5,41.58,80.42,49.65,70.5,49.65z"/><path d="M78.08,24.24L67.5,34.83l-4.59-4.59c-0.78-0.78-2.05-0.78-2.83,0s-0.78,2.05,0,2.83l6,6c0.39,0.39,0.9,0.59,1.42,0.59
		c0.51,0,1.02-0.2,1.41-0.59l12-12c0.78-0.78,0.78-2.05,0-2.83C80.13,23.46,78.86,23.46,78.08,24.24z"/></svg>