<svg xmlns="http://www.w3.org/2000/svg" width="32" height="32" enable-background="new 0 0 32 32" viewBox="0 0 32 32"><path d="M3.604,12.079c0.197,0.211,0.443,0.387,0.738,0.529s0.641,0.234,1.037,0.279v1.367c0,0.155,0.023,0.271,0.072,0.345
		s0.135,0.111,0.256,0.111c0.131,0,0.217-0.045,0.256-0.136s0.059-0.237,0.059-0.436v-1.261c0.482-0.041,0.898-0.167,1.25-0.38
		s0.617-0.487,0.799-0.823c0.18-0.336,0.27-0.696,0.27-1.081c0-0.308-0.057-0.591-0.17-0.849s-0.273-0.48-0.482-0.665
		C7.492,8.899,7.27,8.763,7.021,8.668c-0.248-0.094-0.582-0.199-1-0.314V6.248c0.426,0.139,0.693,0.418,0.805,0.84
		c0.098,0.358,0.313,0.538,0.643,0.538c0.176,0,0.324-0.062,0.449-0.186c0.123-0.123,0.184-0.269,0.184-0.438
		c0-0.152-0.041-0.319-0.123-0.501C7.895,6.319,7.777,6.142,7.625,5.969C7.434,5.743,7.209,5.574,6.951,5.462
		c-0.26-0.111-0.568-0.186-0.93-0.223V4.693c0-0.277-0.107-0.416-0.324-0.415c-0.213,0-0.318,0.141-0.318,0.425V5.24
		C4.68,5.301,4.145,5.517,3.775,5.888C3.406,6.259,3.221,6.735,3.221,7.316c0,0.446,0.094,0.811,0.283,1.094
		c0.189,0.284,0.436,0.503,0.74,0.656C4.547,9.22,4.926,9.359,5.377,9.484l0.002,2.354c-0.227-0.064-0.408-0.157-0.545-0.278
		c-0.137-0.122-0.238-0.256-0.307-0.403c-0.068-0.147-0.146-0.358-0.238-0.635c-0.041-0.128-0.113-0.228-0.219-0.298
		c-0.104-0.072-0.232-0.106-0.385-0.106c-0.189,0-0.346,0.064-0.473,0.195c-0.127,0.13-0.189,0.275-0.189,0.438
		c0,0.22,0.047,0.443,0.141,0.671C3.26,11.648,3.406,11.868,3.604,12.079z M6.021,9.671c0.35,0.111,0.617,0.247,0.797,0.407
		C7,10.24,7.09,10.466,7.09,10.76c0,0.273-0.094,0.514-0.279,0.719c-0.186,0.207-0.449,0.343-0.789,0.41V9.671z M4.699,7.794
		C4.551,7.658,4.477,7.456,4.477,7.189c0-0.28,0.08-0.49,0.238-0.628s0.379-0.25,0.662-0.334l0.002,1.939
		C5.074,8.055,4.848,7.932,4.699,7.794z"/><path d="M28.977 8.994h-4.175c-.231 0-.432.158-.486.382l-1.446 5.978L3.025 15.284c-.001 0-.001 0-.002 0-.167 0-.323.083-.416.222-.093.139-.11.315-.046.47l4.06 9.774c.078.187.26.309.462.309h12.762v1.176H5.424c-.276 0-.5.224-.5.5s.224.5.5.5h.683c-.518.384-.858.994-.858 1.688 0 1.158.942 2.1 2.099 2.1 1.159 0 2.103-.941 2.103-2.1 0-.693-.341-1.304-.86-1.688h8.911c-.519.384-.86.994-.86 1.688 0 1.158.943 2.1 2.103 2.1 1.158 0 2.101-.941 2.101-2.1 0-.693-.341-1.304-.859-1.688h.359c.276 0 .5-.224.5-.5v-1.676h.073c.231 0 .432-.158.486-.383l2.339-9.669c.007-.021.012-.043.016-.065l1.438-5.947h3.781c.276 0 .5-.224.5-.5S29.253 8.994 28.977 8.994zM7.347 31.021c-.606 0-1.099-.493-1.099-1.1 0-.608.493-1.104 1.099-1.104.608 0 1.103.495 1.103 1.104C8.45 30.528 7.955 31.021 7.347 31.021zM18.744 31.021c-.608 0-1.103-.493-1.103-1.1 0-.608.495-1.104 1.103-1.104.607 0 1.101.495 1.101 1.104C19.844 30.528 19.351 31.021 18.744 31.021zM20.523 25.059H7.417l-3.644-8.772 18.856.067L20.523 25.059zM10.352 4.375c.128 0 .256-.049.354-.146l2.541-2.542v9.469c0 .276.224.5.5.5s.5-.224.5-.5V1.686l2.542 2.542c.195.195.512.195.707 0s.195-.512 0-.707L14.1.125c-.188-.188-.52-.188-.707 0L9.998 3.521c-.195.195-.195.512 0 .707C10.096 4.326 10.224 4.375 10.352 4.375z"/></svg>